<svg width="100" height="100" viewBox="0 0 100 100" fill="none" xmlns="http://www.w3.org/2000/svg">
<path fill-rule="evenodd" clip-rule="evenodd" d="M75.941 43.641H79.941C81.045 43.641 81.941 42.746 81.941 41.641C81.941 40.538 81.045 39.643 79.941 39.643H75.941C74.837 39.643 73.941 40.537 73.941 41.641C73.941 42.746 74.837 43.641 75.941 43.641ZM69.256 30.329C70.037 31.11 71.303 31.11 72.084 30.329L74.912 27.502C75.693 26.721 75.693 25.454 74.912 24.674C74.131 23.893 72.865 23.893 72.084 24.674L69.256 27.502C68.475 28.282 68.475 29.549 69.256 30.329ZM69.137 45.936C69.649 44.602 69.942 43.156 69.943 41.641C69.943 35.016 64.571 29.643 57.944 29.643C54.087 29.643 50.664 31.47 48.469 34.297C49 34.3593 50.5058 34.7856 52.281 35.992C53.728 34.541 55.731 33.643 57.943 33.643C62.361 33.643 65.943 37.225 65.943 41.641C65.943 42.164 65.889 42.674 65.793 43.168C66.4533 43.5693 68.0466 44.6848 69.137 45.936ZM55.944 23.644C55.944 24.748 56.839 25.643 57.943 25.643C59.049 25.643 59.943 24.749 59.943 23.644V19.645C59.943 18.54 59.048 17.645 57.943 17.645C56.84 17.645 55.944 18.54 55.944 19.645V23.644ZM40.976 27.502L43.803 30.329C44.584 31.11 45.851 31.11 46.631 30.329C47.412 29.549 47.412 28.282 46.631 27.502L43.803 24.674C43.023 23.893 41.756 23.893 40.976 24.674C40.195 25.454 40.195 26.721 40.976 27.502Z" fill="#FFE600"/>
<path fill-rule="evenodd" clip-rule="evenodd" d="M71.943 53.641C71.943 50.706 70.886 48.022 69.137 45.936C68.0466 44.6848 66.4533 43.5693 65.793 43.168C64.062 42.2 62.068 41.641 59.943 41.641C59.247 41.641 58.574 41.733 57.91 41.846C56.566 39.445 54.621 37.428 52.281 35.992C50.5058 34.7856 49 34.3593 48.469 34.297C47.036 33.875 45.518 33.643 43.946 33.643C35.111 33.643 27.948 40.805 27.948 49.641C27.948 58.477 35.111 65.639 43.946 65.639H59.944C66.571 65.639 71.943 60.266 71.943 53.641ZM43.945 61.639C37.318 61.639 31.947 56.268 31.947 49.641C31.947 43.014 37.318 37.643 43.945 37.643C49.636 37.643 54.379 41.616 55.61 46.932C56.86 46.123 58.343 45.641 59.943 45.641C64.361 45.641 67.942 49.223 67.942 53.641C67.942 58.057 64.361 61.639 59.943 61.639H43.945Z" fill="white"/>
</svg>
