<svg width="100" height="100" viewBox="0 0 100 100" fill="none" xmlns="http://www.w3.org/2000/svg">
<path fill-rule="evenodd" clip-rule="evenodd" d="M57.999 51.641H48.001L43.001 65.641H49.601L46.001 77.639L58.999 61.641H52L57.999 51.641Z" fill="#FFE600"/>
<path fill-rule="evenodd" clip-rule="evenodd" d="M58.937 65.641H59.999C66.626 65.641 71.999 60.267 71.999 53.64C71.999 47.013 66.627 41.642 60 41.642C59.304 41.642 58.631 41.733 57.967 41.847C55.231 36.955 50.006 33.643 44.002 33.643C35.167 33.643 28.004 40.807 28.004 49.642C28.004 56.826 32.739 62.903 39.259 64.924L40.608 61.147C35.636 59.681 32.004 55.089 32.004 49.643C32.004 43.015 37.376 37.643 44.002 37.643C49.693 37.643 54.435 41.617 55.667 46.933C56.917 46.123 58.399 45.643 60 45.643C64.418 45.643 67.999 49.223 67.999 53.641C67.999 57.176 65.703 60.172 62.522 61.229L58.937 65.641Z" fill="white"/>
</svg>
