<svg width="100" height="100" viewBox="0 0 100 100" fill="none" xmlns="http://www.w3.org/2000/svg">
<path fill-rule="evenodd" clip-rule="evenodd" d="M50.0008 70C38.9545 70 30 61.0455 30 50.0008C30 38.9545 38.9545 30 50.0008 30C51.2593 30 52.4861 30.13 53.6796 30.3534C53.4596 31.3135 53.3329 32.3086 53.3329 33.3337C53.3329 40.698 59.3037 46.6671 66.6679 46.6671C67.693 46.6671 68.6882 46.5404 69.6483 46.3204C69.87 47.5155 70 48.7407 70 50.0008C70 61.0455 61.0455 70 50.0008 70ZM47.0205 37.0125C41.0931 38.3677 36.6675 43.6617 36.6675 50.0008C36.6675 57.3634 42.6366 63.3342 50.0008 63.3342C56.3383 63.3342 61.6323 58.9086 62.9875 52.9812C54.8964 51.4743 48.5257 45.1036 47.0205 37.0125Z" fill="#FFFACA"/>
</svg>
