<svg width="100" height="100" viewBox="0 0 100 100" fill="none" xmlns="http://www.w3.org/2000/svg">
<path fill-rule="evenodd" clip-rule="evenodd" d="M29.177 55.641C28.915 54.995 28.704 54.326 28.529 53.641H71.999C71.999 54.325 71.929 54.989 71.818 55.641H29.177ZM36.263 35.643C38.557 34.372 41.193 33.644 44.001 33.644C46.807 33.644 49.437 34.374 51.728 35.643H36.263ZM28.142 47.642C28.227 46.96 28.36 46.295 28.529 45.643H68.925C69.476 46.256 69.964 46.924 70.38 47.642H28.142ZM29.177 43.643C29.458 42.95 29.79 42.284 30.161 41.643H57.843C57.883 41.711 57.927 41.778 57.966 41.848C58.63 41.734 59.304 41.643 59.999 41.643C62.45 41.643 64.728 42.381 66.626 43.643H29.177ZM31.524 39.643C32.104 38.92 32.749 38.255 33.444 37.643H54.566C55.256 38.253 55.892 38.923 56.469 39.643H31.524ZM71.817 51.641H28.142C28.06 50.985 28.003 50.321 28.003 49.642H71.301C71.528 50.285 71.702 50.953 71.817 51.641ZM71.301 57.641C71.054 58.34 70.746 59.008 70.38 59.641H31.524C31.019 59.012 30.567 58.342 30.161 57.641H71.301ZM33.444 61.641H68.924C68.244 62.399 67.477 63.075 66.625 63.64H36.263C35.247 63.078 34.309 62.4 33.444 61.641Z" fill="white"/>
</svg>
