<svg width="100" height="100" viewBox="0 0 100 100" fill="none" xmlns="http://www.w3.org/2000/svg">
<path fill-rule="evenodd" clip-rule="evenodd" d="M79.94 43.641H75.941C74.837 43.641 73.941 42.746 73.941 41.641C73.941 40.537 74.837 39.642 75.941 39.642H79.94C81.044 39.642 81.94 40.537 81.94 41.641C81.94 42.746 81.045 43.641 79.94 43.641ZM72.084 30.329C71.303 31.11 70.036 31.11 69.256 30.329C68.475 29.549 68.475 28.282 69.256 27.502L72.084 24.674C72.864 23.893 74.131 23.893 74.912 24.674C75.692 25.454 75.692 26.721 74.912 27.502L72.084 30.329ZM69.137 45.936C70.886 48.022 71.942 50.706 71.942 53.641C71.942 58.862 68.6 63.293 63.943 64.942V60.561C66.332 59.176 67.943 56.6 67.943 53.641C67.943 49.223 64.361 45.641 59.944 45.641C58.343 45.641 56.86 46.123 55.61 46.932C54.379 41.616 49.637 37.642 43.946 37.642C37.319 37.642 31.947 43.014 31.947 49.641C31.947 53.19 33.498 56.37 35.947 58.567V63.481C31.17 60.713 27.948 55.559 27.948 49.641C27.948 40.805 35.11 33.643 43.946 33.643C45.518 33.643 47.035 33.875 48.469 34.297C50.664 31.47 54.086 29.643 57.944 29.643C64.571 29.643 69.942 35.015 69.942 41.641C69.941 43.156 69.649 44.602 69.137 45.936ZM57.943 33.643C55.73 33.643 53.728 34.541 52.28 35.993C54.621 37.429 56.566 39.445 57.91 41.846C58.574 41.733 59.246 41.641 59.943 41.641C62.068 41.641 64.061 42.2 65.793 43.168C65.889 42.674 65.942 42.164 65.942 41.641C65.942 37.224 62.361 33.643 57.943 33.643ZM57.943 25.643C56.839 25.643 55.943 24.748 55.943 23.644V19.645C55.943 18.54 56.839 17.645 57.943 17.645C59.047 17.645 59.943 18.54 59.943 19.645V23.644C59.943 24.749 59.048 25.643 57.943 25.643ZM43.803 30.329L40.975 27.502C40.195 26.721 40.195 25.454 40.975 24.674C41.756 23.893 43.022 23.893 43.803 24.674L46.631 27.502C47.412 28.282 47.412 29.549 46.631 30.329C45.85 31.11 44.584 31.11 43.803 30.329Z" fill="white"/>
<path fill-rule="evenodd" clip-rule="evenodd" d="M75.941 43.641H79.94C81.045 43.641 81.94 42.746 81.94 41.641C81.94 40.537 81.044 39.642 79.94 39.642H75.941C74.837 39.642 73.941 40.537 73.941 41.641C73.941 42.746 74.837 43.641 75.941 43.641ZM69.256 30.329C70.036 31.11 71.303 31.11 72.084 30.329L74.912 27.502C75.692 26.721 75.692 25.454 74.912 24.674C74.131 23.893 72.864 23.893 72.084 24.674L69.256 27.502C68.475 28.282 68.475 29.549 69.256 30.329ZM55.943 23.644C55.943 24.748 56.839 25.643 57.943 25.643C59.048 25.643 59.943 24.749 59.943 23.644V19.645C59.943 18.54 59.047 17.645 57.943 17.645C56.839 17.645 55.943 18.54 55.943 19.645V23.644ZM40.975 27.502L43.803 30.329C44.584 31.11 45.85 31.11 46.631 30.329C47.412 29.549 47.412 28.282 46.631 27.502L43.803 24.674C43.022 23.893 41.756 23.893 40.975 24.674C40.195 25.454 40.195 26.721 40.975 27.502ZM43.945 55.641C43.945 54.536 43.049 53.641 41.945 53.641C40.841 53.641 39.945 54.535 39.945 55.641V59.639C39.945 60.744 40.841 61.639 41.945 61.639C43.049 61.639 43.945 60.744 43.945 59.639V55.641ZM43.945 67.639C43.945 66.534 43.049 65.639 41.945 65.639C40.841 65.639 39.945 66.533 39.945 67.639V71.637C39.945 72.742 40.841 73.637 41.945 73.637C43.049 73.637 43.945 72.742 43.945 71.637V67.639ZM51.944 59.639C51.944 58.535 51.048 57.639 49.944 57.639C48.84 57.639 47.944 58.535 47.944 59.639V63.639C47.944 64.743 48.84 65.639 49.944 65.639C51.048 65.639 51.944 64.743 51.944 63.639V59.639ZM51.944 71.637C51.944 70.534 51.048 69.639 49.944 69.639C48.84 69.639 47.944 70.533 47.944 71.637V75.637C47.944 76.742 48.84 77.637 49.944 77.637C51.048 77.637 51.944 76.742 51.944 75.637V71.637ZM59.943 55.641C59.943 54.536 59.047 53.641 57.943 53.641C56.839 53.641 55.943 54.535 55.943 55.641V59.639C55.943 60.744 56.839 61.639 57.943 61.639C59.047 61.639 59.943 60.744 59.943 59.639V55.641ZM59.943 67.639C59.943 66.534 59.047 65.639 57.943 65.639C56.839 65.639 55.943 66.533 55.943 67.639V71.637C55.943 72.742 56.839 73.637 57.943 73.637C59.047 73.637 59.943 72.742 59.943 71.637V67.639Z" fill="#00B4ED"/>
<path fill-rule="evenodd" clip-rule="evenodd" d="M75.941 43.641H79.941C81.045 43.641 81.941 42.746 81.941 41.641C81.941 40.538 81.045 39.643 79.941 39.643H75.941C74.837 39.643 73.941 40.537 73.941 41.641C73.941 42.746 74.837 43.641 75.941 43.641ZM69.256 30.329C70.037 31.11 71.303 31.11 72.084 30.329L74.912 27.502C75.693 26.721 75.693 25.454 74.912 24.674C74.131 23.893 72.865 23.893 72.084 24.674L69.256 27.502C68.475 28.282 68.475 29.549 69.256 30.329ZM69.137 45.936C69.649 44.602 69.942 43.156 69.943 41.641C69.943 35.016 64.571 29.643 57.944 29.643C54.087 29.643 50.664 31.47 48.469 34.297C49 34.3593 50.5058 34.7856 52.281 35.992C53.728 34.541 55.731 33.643 57.943 33.643C62.361 33.643 65.943 37.225 65.943 41.641C65.943 42.164 65.889 42.674 65.793 43.168C66.4533 43.5693 68.0466 44.6848 69.137 45.936ZM55.944 23.644C55.944 24.748 56.839 25.643 57.943 25.643C59.049 25.643 59.943 24.749 59.943 23.644V19.645C59.943 18.54 59.048 17.645 57.943 17.645C56.84 17.645 55.944 18.54 55.944 19.645V23.644ZM40.976 27.502L43.803 30.329C44.584 31.11 45.851 31.11 46.631 30.329C47.412 29.549 47.412 28.282 46.631 27.502L43.803 24.674C43.023 23.893 41.756 23.893 40.976 24.674C40.195 25.454 40.195 26.721 40.976 27.502Z" fill="#FFE600"/>
</svg>
