<svg width="100" height="100" viewBox="0 0 100 100" fill="none" xmlns="http://www.w3.org/2000/svg">
<path fill-rule="evenodd" clip-rule="evenodd" d="M69.762 46.758C71.131 48.707 71.942 51.076 71.942 53.641C71.942 58.862 68.6 63.293 63.944 64.942V60.561C66.333 59.176 67.942 56.6 67.942 53.641C67.942 49.223 64.362 45.641 59.944 45.641C58.344 45.641 56.86 46.123 55.61 46.932C54.38 41.616 49.637 37.642 43.946 37.642C37.319 37.642 31.948 43.014 31.948 49.641C31.948 53.19 33.497 56.37 35.946 58.567V63.481C31.171 60.713 27.948 55.559 27.948 49.641C27.948 40.805 35.11 33.643 43.946 33.643C45.948 33.643 47.86 34.018 49.626 34.69C51.261 30.008 55.704 26.643 60.944 26.643C61.7 26.643 62.434 26.721 63.151 26.855C63.02 27.43 62.944 28.028 62.944 28.643C62.944 33.061 66.524 36.642 70.942 36.642C71.557 36.642 72.155 36.566 72.731 36.434C72.864 37.151 72.942 37.887 72.942 38.642C72.941 41.775 71.73 44.62 69.762 46.758ZM59.154 30.85C56.254 31.514 53.98 33.76 53.23 36.625C55.148 37.997 56.753 39.777 57.91 41.846C58.574 41.733 59.246 41.641 59.943 41.641C62.56 41.641 64.976 42.49 66.949 43.912C67.806 42.933 68.433 41.744 68.734 40.43C63.881 39.525 60.059 35.705 59.154 30.85ZM41.945 53.641C43.05 53.641 43.945 54.536 43.945 55.641V59.639C43.945 60.744 43.05 61.639 41.945 61.639C40.841 61.639 39.945 60.744 39.945 59.639V55.641C39.945 54.535 40.842 53.641 41.945 53.641ZM41.945 65.639C43.05 65.639 43.945 66.534 43.945 67.639V71.637C43.945 72.742 43.05 73.637 41.945 73.637C40.841 73.637 39.945 72.742 39.945 71.637V67.639C39.945 66.533 40.842 65.639 41.945 65.639ZM49.945 57.639C51.049 57.639 51.943 58.535 51.943 59.639V63.639C51.943 64.743 51.048 65.639 49.945 65.639C48.84 65.639 47.945 64.743 47.945 63.639V59.639C47.945 58.535 48.84 57.639 49.945 57.639ZM49.945 69.639C51.049 69.639 51.943 70.534 51.943 71.637V75.637C51.943 76.742 51.048 77.637 49.945 77.637C48.84 77.637 47.945 76.742 47.945 75.637V71.637C47.945 70.533 48.84 69.639 49.945 69.639ZM57.943 53.641C59.048 53.641 59.943 54.536 59.943 55.641V59.639C59.943 60.744 59.048 61.639 57.943 61.639C56.839 61.639 55.943 60.744 55.943 59.639V55.641C55.943 54.535 56.84 53.641 57.943 53.641ZM57.943 65.639C59.048 65.639 59.943 66.534 59.943 67.639V71.637C59.943 72.742 59.048 73.637 57.943 73.637C56.839 73.637 55.943 72.742 55.943 71.637V67.639C55.943 66.533 56.84 65.639 57.943 65.639Z" fill="#00B4ED"/>
<path fill-rule="evenodd" clip-rule="evenodd" d="M69.762 46.758C71.131 48.707 71.942 51.076 71.942 53.641C71.942 58.862 68.6 63.293 63.944 64.942V60.561C66.333 59.176 67.942 56.6 67.942 53.641C67.942 49.223 64.362 45.641 59.944 45.641C58.344 45.641 56.86 46.123 55.61 46.932C54.38 41.616 49.637 37.642 43.946 37.642C37.319 37.642 31.948 43.014 31.948 49.641C31.948 53.19 33.497 56.37 35.946 58.567V63.481C31.171 60.713 27.948 55.559 27.948 49.641C27.948 40.805 35.11 33.643 43.946 33.643C45.948 33.643 47.86 34.018 49.626 34.69C51.261 30.008 55.704 26.643 60.944 26.643C61.7 26.643 62.434 26.721 63.151 26.855C63.02 27.43 62.944 28.028 62.944 28.643C62.944 33.061 66.524 36.642 70.942 36.642C71.557 36.642 72.155 36.566 72.731 36.434C72.864 37.151 72.942 37.887 72.942 38.642C72.941 41.775 71.73 44.62 69.762 46.758ZM59.154 30.85C56.254 31.514 53.98 33.76 53.23 36.625C55.148 37.997 56.753 39.777 57.91 41.846C58.574 41.733 59.246 41.641 59.943 41.641C62.56 41.641 64.976 42.49 66.949 43.912C67.806 42.933 68.433 41.744 68.734 40.43C63.881 39.525 60.059 35.705 59.154 30.85Z" fill="white"/>
<path d="M60.944 26.643C55.704 26.643 51.261 30.008 49.626 34.69C50.0707 34.8767 51.414 35.525 53.23 36.625C53.98 33.76 56.254 31.514 59.154 30.85C60.059 35.705 63.881 39.525 68.734 40.43C68.433 41.744 67.806 42.933 66.949 43.912C67.474 44.28 68.7716 45.3644 69.762 46.758C71.73 44.62 72.941 41.775 72.942 38.642C72.942 37.887 72.864 37.151 72.731 36.434C72.155 36.566 71.557 36.642 70.942 36.642C66.524 36.642 62.944 33.061 62.944 28.643C62.944 28.028 63.02 27.43 63.151 26.855C62.434 26.721 61.7 26.643 60.944 26.643Z" fill="#FFFACA"/>
</svg>
